# xmcd
#
# Track frame offsets:
#	150
#	23573
#	44754
#	70773
#	77576
#	85473
#	90196
#	115717
#	136978
#	149273
#
# Disc length: 2334 seconds
# Revision: 0
# Processed by: cddbd v1.5.2PL0 Copyright (c) Steve Scherf et al.
# Submitted via: dBpowerAMP V12.0
#
DISCID=79091c0a
DTITLE=Ida Jenshus - Two Worlds
DYEAR=2017
DGENRE=Alternativ Pop
TTITLE0=April Child
TTITLE1=Greatest Love
TTITLE2=Point Reyes - Blood Moon
TTITLE3=The Visitor
TTITLE4=Deep Sea
TTITLE5=Arrival
TTITLE6=Love Me Like Today
TTITLE7=So Many Times
TTITLE8=Never Be The Same
TTITLE9=Two Worlds
EXTD=
EXTT0=
EXTT1=
EXTT2=
EXTT3=
EXTT4=
EXTT5=
EXTT6=
EXTT7=
EXTT8=
EXTT9=
PLAYORDER=
